<?xml version="1.0" encoding="utf-8"?>
<!-- Generator: Adobe Illustrator 26.3.1, SVG Export Plug-In . SVG Version: 6.00 Build 0)  -->
<svg version="1.1" id="レイヤー_1" xmlns="http://www.w3.org/2000/svg" xmlns:xlink="http://www.w3.org/1999/xlink" x="0px"
	 y="0px" viewBox="0 0 726.8 142.6" style="enable-background:new 0 0 726.8 142.6;" xml:space="preserve">
<style type="text/css">
	.st0{opacity:0.251;fill:#CA4E51;enable-background:new    ;}
</style>
<path id="COUPON" class="st0" d="M53.3,0c6.4-0.1,12.8,0.9,19,2.7c5.6,1.7,10.7,4.6,15.2,8.3c9,7.6,14.7,19.1,16.9,33.9l0.1,0.6
	H76.7l-0.1-0.4c-1.3-6.6-3.9-11.6-7.6-15.1c-3.9-3.6-9.2-5.5-15.7-5.5c-3.6-0.1-7.2,0.6-10.5,2.1c-3.1,1.4-5.7,3.7-7.6,6.5
	c-2.3,3.5-3.8,7.4-4.7,11.4c-1.1,5.6-1.7,11.2-1.6,16.9v19.6c-0.1,5.6,0.5,11.1,1.6,16.5c0.8,4.1,2.4,8,4.7,11.5
	c1.9,2.9,4.5,5.2,7.6,6.7c3.3,1.5,6.9,2.3,10.5,2.2c6.8,0,11.9-1.7,15.7-5.1c1.9-1.8,3.5-4,4.6-6.4c1.4-2.9,2.4-5.9,3-9.1l0.1-0.4
	h27.6l-0.1,0.6c-0.9,7-2.9,13.8-5.9,20.2c-2.5,5.4-6.1,10.1-10.6,14c-4.4,3.7-9.6,6.5-15.1,8.2c-6.3,1.8-12.8,2.7-19.4,2.6
	c-7.3,0.1-14.6-1.1-21.5-3.6c-6.4-2.4-12.2-6.2-16.9-11.2c-5-5.5-8.8-12.1-11-19.2C1.2,99.7-0.1,90.4,0,81.1V61.5
	c-0.2-9.4,1.2-18.7,3.9-27.7c2.2-7.1,6-13.7,11-19.2c4.7-5,10.5-8.8,16.9-11.1C38.7,1.1,46-0.1,53.3,0z M103.3,44.6
	c-2.3-14.3-7.8-25.4-16.5-32.7C78.4,4.7,67.1,1,53.3,1c-7.2-0.1-14.4,1.1-21.2,3.5c-6.3,2.3-11.9,6-16.5,10.9
	C10.7,20.8,7,27.2,4.9,34.2C2.2,43,0.8,52.2,1,61.5v19.6c-0.1,9.2,1.2,18.4,3.9,27.2c2.2,7,5.9,13.4,10.8,18.8
	c4.6,4.9,10.2,8.6,16.5,11c6.8,2.5,13.9,3.7,21.2,3.6c29,0,45.3-14.3,49.8-43.6H77.5c-0.6,3.1-1.6,6.1-3,8.9
	c-1.2,2.5-2.8,4.8-4.9,6.7c-4,3.6-9.3,5.4-16.4,5.4c-3.8,0.1-7.5-0.7-10.9-2.3c-3.2-1.6-6-4-8-7c-2.3-3.6-3.9-7.6-4.8-11.8
	c-1.1-5.5-1.7-11.1-1.6-16.8V61.5c-0.1-5.7,0.5-11.5,1.6-17.1c0.8-4.2,2.5-8.2,4.8-11.8c2-3,4.7-5.3,8-6.8c3.4-1.5,7.2-2.3,10.9-2.2
	c6.7,0,12.2,1.9,16.4,5.8c3.8,3.5,6.5,8.7,7.8,15.2L103.3,44.6z M170.7,0c7.4-0.1,14.7,1.1,21.6,3.6c6.4,2.3,12.2,6.1,16.9,11.1
	c5,5.5,8.8,12,11,19.2c2.8,9,4.1,18.3,3.9,27.7v19.6c0.2,9.3-1.2,18.6-3.9,27.5c-2.2,7.1-6,13.7-11,19.2c-4.7,5-10.5,8.8-16.9,11.2
	c-6.9,2.5-14.3,3.7-21.6,3.6c-7.3,0.1-14.6-1.1-21.5-3.6c-6.4-2.4-12.2-6.2-16.9-11.2c-5-5.5-8.8-12.1-11-19.2
	c-2.7-8.9-4.1-18.2-3.9-27.5V61.5c-0.2-9.4,1.2-18.7,3.9-27.7c2.2-7.1,6-13.7,11-19.2c4.7-5,10.5-8.8,16.9-11.1
	C156.1,1.1,163.4-0.1,170.7,0z M170.7,141.6c7.2,0.1,14.5-1.1,21.3-3.6c6.3-2.3,12-6.1,16.6-11c4.9-5.4,8.6-11.8,10.8-18.8
	c2.7-8.8,4-18,3.9-27.2V61.5c0.2-9.3-1.2-18.5-3.9-27.3c-2.2-7-5.9-13.4-10.8-18.8c-4.6-4.9-10.3-8.6-16.6-10.9
	c-6.8-2.4-14-3.6-21.3-3.5c-7.2-0.1-14.4,1.1-21.2,3.5c-6.3,2.3-11.9,6-16.5,10.9c-4.9,5.4-8.6,11.8-10.8,18.8
	c-2.7,8.9-4,18.1-3.9,27.3v19.6c-0.1,9.2,1.2,18.4,3.9,27.2c2.2,7,5.9,13.4,10.8,18.8c4.6,4.9,10.2,8.6,16.5,11
	C156.3,140.5,163.5,141.7,170.7,141.6z M546.5,0c7.4-0.1,14.7,1.1,21.6,3.6c6.4,2.3,12.2,6.1,16.9,11.1c5,5.5,8.8,12,11,19.2
	c2.8,9,4.1,18.3,3.9,27.7v19.6c0.2,9.3-1.2,18.6-3.9,27.5c-2.2,7.1-6,13.7-11,19.2c-4.7,5-10.5,8.8-16.9,11.2
	c-6.9,2.5-14.3,3.7-21.6,3.6c-7.3,0.1-14.6-1.1-21.5-3.6c-6.4-2.4-12.2-6.2-16.9-11.2c-5-5.5-8.8-12.1-11-19.2
	c-2.7-8.9-4.1-18.2-3.9-27.5V61.5c-0.2-9.4,1.2-18.7,3.9-27.7c2.2-7.1,6-13.7,11-19.2c4.7-5,10.5-8.8,16.9-11.1
	C531.9,1.1,539.2-0.1,546.5,0z M546.5,141.6c7.2,0.1,14.5-1.1,21.3-3.6c6.3-2.3,12-6.1,16.6-11c4.9-5.4,8.6-11.8,10.8-18.8
	c2.7-8.8,4-18,3.9-27.2V61.5c0.2-9.3-1.2-18.5-3.9-27.3c-2.2-7-5.9-13.4-10.8-18.8c-4.6-4.9-10.3-8.6-16.6-10.9
	c-6.8-2.4-14-3.6-21.3-3.5c-7.2-0.1-14.4,1.1-21.2,3.5c-6.3,2.3-11.9,6-16.5,10.9c-4.9,5.4-8.6,11.8-10.8,18.8
	c-2.7,8.9-4,18.1-3.9,27.3v19.6c-0.1,9.2,1.2,18.4,3.9,27.2c2.2,7,5.9,13.4,10.8,18.8c4.6,4.9,10.2,8.6,16.5,11
	C532.1,140.5,539.3,141.7,546.5,141.6z M246.2,1.8h29v82.7c0,11.8,1.9,20.1,6,25.6c3.9,5.3,10,7.9,18.5,7.9s14.6-2.6,18.5-7.9
	c4-5.4,6-13.8,6-25.6V1.8h29v82.5c0.2,9-1.2,17.9-4,26.4c-2.3,6.8-6.1,13-11.2,18.1c-4.8,4.7-10.6,8.3-17,10.4
	c-6.9,2.3-14.1,3.4-21.4,3.3c-7.3,0.1-14.5-1-21.4-3.3c-6.4-2.1-12.2-5.7-17-10.4c-5-5.1-8.9-11.3-11.2-18.1
	c-2.8-8.5-4.2-17.4-4-26.3V1.8z M274.2,2.8h-27v81.7c-0.2,8.8,1.2,17.6,4,26c2.2,6.7,6,12.7,10.9,17.7c4.7,4.6,10.4,8.1,16.6,10.2
	c6.8,2.3,13.9,3.4,21,3.3c7.1,0.1,14.2-1,21-3.3c6.2-2.1,11.9-5.6,16.6-10.2c4.9-5,8.7-11.1,10.9-17.8c2.8-8.4,4.1-17.2,4-26.1V2.8
	h-27v81.7c0,12-2,20.5-6.1,26.1c-4.2,5.6-10.5,8.4-19.4,8.4s-15.2-2.7-19.4-8.4c-4.1-5.6-6.1-14.2-6.1-26.1V2.8z M379.4,1.8h49.9
	c7.3-0.1,14.6,0.8,21.6,2.8c6,1.6,11.6,4.5,16.4,8.4c4.6,3.8,8.1,8.6,10.4,14c2.5,6.2,3.7,12.9,3.6,19.6c0.1,6.7-1.1,13.4-3.6,19.6
	c-2.3,5.5-5.8,10.5-10.4,14.4c-4.8,4-10.4,7-16.4,8.8c-7,2.1-14.4,3.1-21.7,3h-20.9v48.6h-29V1.8z M429.3,91.2
	c7.2,0.1,14.5-0.9,21.4-2.9c5.9-1.7,11.4-4.7,16.1-8.6c4.4-3.8,7.9-8.6,10.1-14c2.4-6.1,3.6-12.6,3.5-19.2
	c0.1-6.6-1.1-13.1-3.6-19.2c-2.2-5.3-5.7-10-10.1-13.6c-4.7-3.8-10.2-6.6-16.1-8.2c-7-1.9-14.1-2.8-21.3-2.7h-48.9v137h27V91.2
	H429.3z M622,1.8h24l53.2,85.4V1.8h27.6v139h-24.2l-0.1-0.2l-52.9-83.9v84.2H622V1.8z M645.4,2.8H623v137h25.6V53.2l0.9,1.5
	l53.7,85.2h22.6V2.8h-25.6v87.8L645.4,2.8z M170.7,23.6c3.8-0.1,7.5,0.7,11,2.2c3.2,1.5,6,3.9,8,6.8c2.4,3.6,4,7.6,4.9,11.8
	c1.2,5.6,1.7,11.4,1.6,17.1v19.6c0.1,5.7-0.5,11.5-1.6,17.1c-0.9,4.2-2.5,8.2-4.9,11.8c-2,3-4.8,5.3-8,6.8c-3.4,1.5-7.2,2.3-11,2.2
	c-3.8,0.1-7.5-0.7-10.9-2.2c-3.2-1.5-6-3.9-8-6.8c-2.3-3.6-4-7.6-4.8-11.8c-1.2-5.6-1.7-11.4-1.6-17.1V61.5
	c-0.1-5.7,0.5-11.5,1.6-17.1c0.8-4.2,2.5-8.2,4.8-11.8c2-3,4.7-5.3,8-6.8C163.2,24.3,166.9,23.5,170.7,23.6z M170.7,118
	c3.6,0.1,7.2-0.6,10.5-2.1c3.1-1.4,5.7-3.7,7.6-6.5c2.3-3.5,3.9-7.4,4.7-11.4c1.2-5.5,1.7-11.2,1.6-16.9V61.5
	c0.1-5.7-0.5-11.3-1.6-16.9c-0.8-4.1-2.4-8-4.7-11.4c-1.9-2.8-4.6-5.1-7.6-6.5c-3.3-1.5-6.9-2.2-10.5-2.1c-3.6-0.1-7.2,0.6-10.5,2.1
	c-3.1,1.4-5.7,3.7-7.6,6.5c-2.3,3.5-3.8,7.4-4.7,11.4c-1.1,5.6-1.7,11.2-1.6,16.9v19.6c-0.1,5.7,0.5,11.3,1.6,16.9
	c0.8,4.1,2.4,8,4.7,11.4c1.9,2.8,4.5,5.1,7.6,6.5C163.5,117.4,167.1,118.1,170.7,118z M546.5,23.6c3.8-0.1,7.5,0.7,11,2.2
	c3.2,1.5,6,3.9,8,6.8c2.4,3.6,4,7.6,4.9,11.8c1.2,5.6,1.7,11.4,1.6,17.1v19.6c0.1,5.7-0.5,11.5-1.6,17.1c-0.9,4.2-2.5,8.2-4.9,11.8
	c-2,3-4.8,5.3-8,6.8c-3.4,1.5-7.2,2.3-11,2.2c-3.8,0.1-7.5-0.7-10.9-2.2c-3.2-1.5-6-3.9-8-6.8c-2.3-3.6-4-7.6-4.8-11.8
	c-1.2-5.6-1.7-11.4-1.6-17.1V61.5c-0.1-5.7,0.5-11.5,1.6-17.1c0.8-4.2,2.5-8.2,4.8-11.8c2-3,4.7-5.3,8-6.8
	C539,24.3,542.7,23.5,546.5,23.6z M546.5,118c3.6,0.1,7.2-0.6,10.5-2.1c3.1-1.4,5.7-3.7,7.6-6.5c2.3-3.5,3.9-7.4,4.7-11.4
	c1.2-5.5,1.7-11.2,1.6-16.9V61.5c0.1-5.7-0.5-11.3-1.6-16.9c-0.8-4.1-2.4-8-4.7-11.4c-1.9-2.8-4.6-5.1-7.6-6.5
	c-3.3-1.5-6.9-2.2-10.5-2.1c-3.6-0.1-7.2,0.6-10.5,2.1c-3.1,1.4-5.7,3.7-7.6,6.5c-2.3,3.5-3.8,7.4-4.7,11.4
	c-1.1,5.6-1.7,11.2-1.6,16.9v19.6c-0.1,5.7,0.5,11.3,1.6,16.9c0.8,4.1,2.4,8,4.7,11.4c1.9,2.8,4.5,5.1,7.6,6.5
	C539.3,117.4,542.9,118.1,546.5,118z M407.4,25.6h17.9c18.9,0,28.1,6.8,28.1,20.9c0,15.3-8.7,22.1-28.1,22.1h-17.9V25.6z
	 M425.3,67.6c9.6,0,16.4-1.7,20.8-5.1c2.2-1.7,3.8-4,4.8-6.5c1.1-3,1.6-6.2,1.5-9.4c0.1-2.9-0.5-5.8-1.5-8.6c-1-2.4-2.7-4.6-4.8-6.2
	c-2.5-1.8-5.4-3.1-8.4-3.8c-4.1-0.9-8.2-1.4-12.4-1.3h-16.9v41H425.3z"/>
</svg>
