<?xml version="1.0" encoding="utf-8"?>
<!-- Generator: Adobe Illustrator 26.3.1, SVG Export Plug-In . SVG Version: 6.00 Build 0)  -->
<svg version="1.1" id="レイヤー_1" xmlns="http://www.w3.org/2000/svg" xmlns:xlink="http://www.w3.org/1999/xlink" x="0px"
	 y="0px" viewBox="0 0 64 64" style="enable-background:new 0 0 64 64;" xml:space="preserve">
<style type="text/css">
	.st0{opacity:0.531;}
	.st1{fill:none;}
	.st2{fill:#FFFFFF;}
	.st3{opacity:0.795;}
	.st4{opacity:0.795;fill:#FFFFFF;enable-background:new    ;}
</style>
<g id="パス_7273" transform="translate(1183 1542)" class="st0">
	<path class="st1" d="M-1151-1542c17.7,0,32,14.3,32,32c0,12.7-7.6,24.3-19.3,29.4c-4,1.8-8.4,2.6-12.7,2.6c-17.7,0-32-14.3-32-32
		S-1168.7-1542-1151-1542z"/>
	<path class="st2" d="M-1151-1541c-4.2,0-8.2,0.8-12.1,2.4c-3.7,1.6-7,3.8-9.9,6.6s-5.1,6.2-6.6,9.9c-1.6,3.8-2.4,7.9-2.4,12.1
		s0.8,8.2,2.4,12.1c1.6,3.7,3.8,7,6.6,9.9s6.2,5.1,9.9,6.6c3.8,1.6,7.9,2.4,12.1,2.4c4.3,0,8.6-0.9,12.3-2.5
		c5.5-2.5,10.2-6.4,13.5-11.3c3.4-5.1,5.2-11,5.2-17.1c0-4.2-0.8-8.2-2.4-12.1c-1.6-3.7-3.8-7-6.6-9.9s-6.2-5.1-9.9-6.6
		C-1142.8-1540.2-1146.8-1541-1151-1541 M-1151-1542c17.7,0,32,14.3,32,32c0,13-7.8,24.3-19.3,29.4c-3.7,1.7-8.1,2.6-12.7,2.6
		c-17.7,0-32-14.3-32-32S-1168.7-1542-1151-1542z"/>
</g>
<g id="_144" transform="translate(1211.331 1582.44) rotate(-90)" class="st3">
	<path id="パス_7271" class="st4" d="M1550.2-1172.3l-8.2-8.2l2.4-2.4l5.8,5.8l5.8-5.8l2.4,2.4L1550.2-1172.3z"/>
</g>
</svg>
