<?xml version="1.0" encoding="utf-8"?>
<!-- Generator: Adobe Illustrator 26.3.1, SVG Export Plug-In . SVG Version: 6.00 Build 0)  -->
<svg version="1.1" id="レイヤー_1" xmlns="http://www.w3.org/2000/svg" xmlns:xlink="http://www.w3.org/1999/xlink" x="0px"
	 y="0px" viewBox="0 0 20 20" style="enable-background:new 0 0 20 20;" xml:space="preserve">
<path id="パス_169" d="M10,2.3c2.6,0,2.9,0,3.9,0.1c0.6,0,1.2,0.1,1.8,0.3c0.8,0.3,1.5,1,1.8,1.8c0.2,0.6,0.3,1.2,0.3,1.8
	c0,1,0.1,1.3,0.1,3.9s0,2.9-0.1,3.9c0,0.6-0.1,1.2-0.3,1.8c-0.3,0.8-1,1.5-1.8,1.8c-0.6,0.2-1.2,0.3-1.8,0.3c-1,0-1.3,0.1-3.9,0.1
	s-2.9,0-3.9-0.1c-0.6,0-1.2-0.1-1.8-0.3c-0.8-0.3-1.5-1-1.8-1.8c-0.2-0.6-0.3-1.2-0.3-1.8c0-1-0.1-1.3-0.1-3.9s0-2.9,0.1-3.9
	c0-0.6,0.1-1.2,0.3-1.8c0.3-0.8,1-1.5,1.8-1.8c0.6-0.2,1.2-0.3,1.8-0.3C7.2,2.3,7.5,2.3,10,2.3z M10,0.5c-2.6,0-2.9,0-3.9,0.1
	C5.3,0.6,4.5,0.8,3.8,1C2.5,1.5,1.5,2.5,1,3.8C0.7,4.5,0.6,5.3,0.6,6.1c0,1-0.1,1.3-0.1,3.9s0,2.9,0.1,3.9c0,0.8,0.2,1.6,0.4,2.3
	c0.5,1.3,1.5,2.3,2.8,2.8c0.7,0.3,1.5,0.4,2.3,0.4c1,0,1.3,0.1,3.9,0.1s2.9,0,3.9-0.1c0.8,0,1.6-0.2,2.3-0.4
	c1.3-0.5,2.3-1.5,2.8-2.8c0.3-0.7,0.4-1.5,0.4-2.3c0-1,0.1-1.3,0.1-3.9s0-2.9-0.1-3.9c0-0.8-0.2-1.6-0.4-2.3
	c-0.5-1.3-1.5-2.3-2.8-2.8c-0.7-0.3-1.5-0.4-2.3-0.4C13,0.5,12.6,0.5,10,0.5z"/>
<path id="パス_170" d="M10,5.2c-2.7,0-4.9,2.2-4.9,4.9S7.3,15,10,15c2.7,0,4.9-2.2,4.9-4.9C15,7.4,12.8,5.2,10,5.2L10,5.2z
	 M10,13.3c-1.8,0-3.2-1.4-3.2-3.2c0-1.8,1.4-3.2,3.2-3.2c1.8,0,3.2,1.4,3.2,3.2l0,0C13.2,11.9,11.8,13.3,10,13.3z"/>
<path id="パス_171" d="M16.3,5c0,0.6-0.5,1.1-1.1,1.1S14.1,5.6,14.1,5s0.5-1.1,1.1-1.1l0,0C15.8,3.8,16.3,4.4,16.3,5z"/>
</svg>
