<?xml version="1.0" encoding="utf-8"?>
<!-- Generator: Adobe Illustrator 26.3.1, SVG Export Plug-In . SVG Version: 6.00 Build 0)  -->
<svg version="1.1" id="レイヤー_1" xmlns="http://www.w3.org/2000/svg" xmlns:xlink="http://www.w3.org/1999/xlink" x="0px"
	 y="0px" viewBox="0 0 726.8 142.6" style="enable-background:new 0 0 624.6 142.6;" xml:space="preserve">
<style type="text/css">
	.st0{opacity:0.403;fill:#36AFBF;enable-background:new    ;}
</style>
<path id="TICKET" class="st0" d="M227.5,0c6.4-0.1,12.8,0.9,19,2.7c5.6,1.7,10.7,4.6,15.2,8.3c9,7.6,14.7,19.1,16.9,33.9l0.1,0.6
	h-27.8l-0.1-0.4c-1.3-6.6-3.9-11.6-7.6-15.1c-3.9-3.6-9.2-5.5-15.7-5.5c-3.6-0.1-7.2,0.6-10.5,2.1c-3.1,1.4-5.7,3.7-7.6,6.5
	c-2.3,3.5-3.8,7.4-4.7,11.4c-1.1,5.6-1.7,11.2-1.6,16.9v19.6c-0.1,5.6,0.5,11.1,1.6,16.5c0.8,4.1,2.4,8,4.7,11.5
	c1.9,2.9,4.5,5.2,7.6,6.7c3.3,1.5,6.9,2.3,10.5,2.2c6.8,0,11.9-1.7,15.7-5.1c1.9-1.8,3.5-4,4.6-6.4c1.4-2.9,2.4-5.9,3-9.1l0.1-0.4
	h27.6l-0.1,0.6c-0.9,7-2.9,13.8-5.9,20.2c-2.5,5.4-6.1,10.1-10.6,14c-4.4,3.7-9.6,6.5-15.1,8.2c-6.3,1.8-12.8,2.7-19.4,2.6
	c-7.3,0.1-14.6-1.1-21.5-3.6c-6.4-2.4-12.2-6.2-16.9-11.2c-5-5.5-8.8-12.1-11-19.2c-2.7-8.9-4.1-18.2-3.9-27.5V61.5
	c-0.2-9.4,1.2-18.7,3.9-27.7c2.2-7.1,6-13.7,11-19.2c4.7-5,10.5-8.8,16.9-11.1C212.9,1.1,220.2-0.1,227.5,0z M277.5,44.6
	c-2.3-14.3-7.8-25.4-16.5-32.7C252.6,4.7,241.3,1,227.5,1c-7.2-0.1-14.4,1.1-21.2,3.5c-6.3,2.3-11.9,6-16.5,10.9
	c-4.9,5.4-8.6,11.8-10.8,18.8c-2.7,8.9-4,18.1-3.9,27.3v19.6c-0.1,9.2,1.2,18.4,3.9,27.2c2.2,7,5.9,13.4,10.8,18.8
	c4.6,4.9,10.2,8.6,16.5,11c6.8,2.5,13.9,3.7,21.2,3.6c29,0,45.3-14.3,49.8-43.6h-25.6c-0.6,3.1-1.6,6.1-3,8.9
	c-1.2,2.5-2.8,4.8-4.9,6.7c-4,3.6-9.3,5.4-16.4,5.4c-3.8,0.1-7.5-0.7-10.9-2.3c-3.2-1.6-6-4-8-7c-2.3-3.6-3.9-7.6-4.8-11.8
	c-1.1-5.5-1.7-11.1-1.6-16.8V61.5c-0.1-5.7,0.5-11.5,1.6-17.1c0.8-4.2,2.5-8.2,4.8-11.8c2-3,4.7-5.3,8-6.8c3.4-1.5,7.2-2.3,10.9-2.2
	c6.7,0,12.2,1.9,16.4,5.8c3.8,3.5,6.5,8.7,7.8,15.2L277.5,44.6z M0,1.8h105v24.8H67v114.2H38V26.6H0V1.8z M104,2.8H1v22.8h38v114.2
	h27V25.6h38V2.8z M121.2,1.8h29v139h-29V1.8z M149.2,2.8h-27v137h27V2.8z M297.2,1.8h29v58.6L369,1.8h34.5l-42.6,56.3l50.7,82.7H377
	l-0.1-0.2L342.1,83l-15.9,20.9v36.9h-29V1.8z M325.2,2.8h-27v137h27v-36.3l0.1-0.1l16.8-22.2l35.4,58.6h32.2l-50.1-81.7l0.2-0.3
	l41.6-55h-31.9l-44.4,60.6V2.8z M426.2,1.8h87v24.8h-58v30h52v24.6h-52v35h58v24.6h-87V1.8z M512.2,2.8h-85v137h85v-22.6h-58v-37h52
	V57.6h-52v-32h58V2.8z M519.6,1.8h105v24.8h-38v114.2h-29V26.6h-38V1.8z M623.6,2.8h-103v22.8h38v114.2h27V25.6h38V2.8z"/>
</svg>
