<?xml version="1.0" encoding="utf-8"?>
<!-- Generator: Adobe Illustrator 26.3.1, SVG Export Plug-In . SVG Version: 6.00 Build 0)  -->
<svg version="1.1" id="レイヤー_1" xmlns="http://www.w3.org/2000/svg" xmlns:xlink="http://www.w3.org/1999/xlink" x="0px"
	 y="0px" viewBox="0 0 20 20" style="enable-background:new 0 0 20 20;" xml:space="preserve">
<style type="text/css">
	.st0{fill:#FFFFFF;}
</style>
<path id="パス_6041" class="st0" d="M19.8,10.1c0-5.3-4.3-9.6-9.6-9.6c-5.3,0-9.6,4.3-9.6,9.6c0,4.7,3.4,8.7,8.1,9.5v-6.7H6.3
	v-2.8h2.4V7.9c-0.2-1.9,1.1-3.5,3-3.7c0.2,0,0.4,0,0.6,0c0.7,0,1.4,0.1,2.1,0.2v2.4h-1.2c-0.8-0.1-1.5,0.4-1.6,1.2
	c0,0.1,0,0.2,0,0.3v1.8h2.7l-0.4,2.8h-2.2v6.7C16.4,18.8,19.8,14.8,19.8,10.1z"/>
</svg>
