<?xml version="1.0" encoding="utf-8"?>
<!-- Generator: Adobe Illustrator 26.3.1, SVG Export Plug-In . SVG Version: 6.00 Build 0)  -->
<svg version="1.1" id="レイヤー_1" xmlns="http://www.w3.org/2000/svg" xmlns:xlink="http://www.w3.org/1999/xlink" x="0px"
	 y="0px" viewBox="0 0 20 20" style="enable-background:new 0 0 20 20;" xml:space="preserve">
<style type="text/css">
	.st0{fill:#FFFFFF;}
</style>
<g id="グループ_10981" transform="translate(354.856 6979.194)">
	<path id="パス_169" class="st0" d="M-344.9-6976.9c2.6,0,2.9,0,3.9,0.1c0.6,0,1.2,0.1,1.8,0.3c0.8,0.3,1.5,1,1.8,1.8
		c0.2,0.6,0.3,1.2,0.3,1.8c0,1,0.1,1.3,0.1,3.9s0,2.9-0.1,3.9c0,0.6-0.1,1.2-0.3,1.8c-0.3,0.8-1,1.5-1.8,1.8
		c-0.6,0.2-1.2,0.3-1.8,0.3c-1,0-1.3,0.1-3.9,0.1s-2.9,0-3.9-0.1c-0.6,0-1.2-0.1-1.8-0.3c-0.8-0.3-1.5-1-1.8-1.8
		c-0.2-0.6-0.3-1.2-0.3-1.8c0-1-0.1-1.3-0.1-3.9s0-2.9,0.1-3.9c0-0.6,0.1-1.2,0.3-1.8c0.3-0.8,1-1.5,1.8-1.8
		c0.6-0.2,1.2-0.3,1.8-0.3C-347.7-6976.9-347.4-6976.9-344.9-6976.9z M-344.9-6978.7c-2.6,0-2.9,0-3.9,0.1c-0.8,0-1.6,0.2-2.3,0.4
		c-1.3,0.5-2.3,1.5-2.8,2.8c-0.3,0.7-0.4,1.5-0.4,2.3c0,1-0.1,1.3-0.1,3.9s0,2.9,0.1,3.9c0,0.8,0.2,1.6,0.4,2.3
		c0.5,1.3,1.5,2.3,2.8,2.8c0.7,0.3,1.5,0.4,2.3,0.4c1,0,1.3,0.1,3.9,0.1s2.9,0,3.9-0.1c0.8,0,1.6-0.2,2.3-0.4
		c1.3-0.5,2.3-1.5,2.8-2.8c0.3-0.7,0.4-1.5,0.4-2.3c0-1,0.1-1.3,0.1-3.9s0-2.9-0.1-3.9c0-0.8-0.2-1.6-0.4-2.3
		c-0.5-1.3-1.5-2.3-2.8-2.8c-0.7-0.3-1.5-0.4-2.3-0.4C-341.9-6978.7-342.3-6978.7-344.9-6978.7z"/>
	<path id="パス_170" class="st0" d="M-344.9-6974c-2.7,0-4.9,2.2-4.9,4.9s2.2,4.9,4.9,4.9c2.7,0,4.9-2.2,4.9-4.9
		C-339.9-6971.8-342.1-6974-344.9-6974L-344.9-6974z M-344.9-6965.9c-1.8,0-3.2-1.4-3.2-3.2c0-1.8,1.4-3.2,3.2-3.2
		c1.8,0,3.2,1.4,3.2,3.2l0,0C-341.7-6967.3-343.1-6965.9-344.9-6965.9z"/>
	<path id="パス_171" class="st0" d="M-338.6-6974.2c0,0.6-0.5,1.1-1.1,1.1s-1.1-0.5-1.1-1.1s0.5-1.1,1.1-1.1l0,0
		C-339.1-6975.4-338.6-6974.8-338.6-6974.2z"/>
</g>
</svg>
