<?xml version="1.0" encoding="utf-8"?>
<!-- Generator: Adobe Illustrator 28.0.0, SVG Export Plug-In . SVG Version: 6.00 Build 0)  -->
<svg version="1.1" id="_x32_" xmlns="http://www.w3.org/2000/svg" xmlns:xlink="http://www.w3.org/1999/xlink" x="0px" y="0px"
	 viewBox="0 0 512 512" style="enable-background:new 0 0 512 512;" xml:space="preserve">
<style type="text/css">
	.st0{fill:#FFFFFF;}
</style>
<g>
	<rect x="171.1" y="332.7" class="st0" width="169.7" height="20"/>
	<rect x="171.1" y="383.1" class="st0" width="169.7" height="20.1"/>
	<rect x="171.1" y="427.8" class="st0" width="80.2" height="20.1"/>
	<path class="st0" d="M486.6,160.7c-9.3-9.3-22.2-15.1-36.3-15.2c0,0-0.1,0-0.1,0c0,0-0.1,0-0.1,0v0c0,0-0.1,0-0.2,0h-36.7V80.8
		L332.4,0h-8.3H98.9v145.5H62.1c0,0,0,0-0.1,0c-14.2,0-27.3,5.8-36.6,15.2l0,0c-9.3,9.3-15.2,22.4-15.2,36.6v164.1
		c0,14.3,5.8,27.3,15.2,36.6c9,9.1,21.6,14.7,35.3,15.1l0.2,0.1h38V512h314.3v-98.9l36.8,0c0.4,0,0.6,0,0.6,0v0
		c14-0.2,26.8-5.9,36-15.1c9.3-9.3,15.2-22.3,15.2-36.6V197.3C501.7,183,495.9,170,486.6,160.7z M321,36.9l53.4,53.4H321V36.9z
		 M379,477.9H132.9v-84.8h0v-88.5H379v102.6h0V477.9z M333.1,231.2c0-8.9,7.2-16.1,16.1-16.1c8.9,0,16.1,7.2,16.1,16.1
		c0,8.9-7.2,16.1-16.1,16.1C340.3,247.3,333.1,240.1,333.1,231.2z M379,151.5H132.9V34.1l168,0v76.2H379V151.5z M417.7,247.3
		c-8.9,0-16.1-7.2-16.1-16.1c0-8.9,7.2-16.1,16.1-16.1c8.9,0,16.1,7.2,16.1,16.1C433.8,240.1,426.6,247.3,417.7,247.3z"/>
</g>
</svg>
