<?xml version="1.0" encoding="utf-8"?>
<!-- Generator: Adobe Illustrator 26.3.1, SVG Export Plug-In . SVG Version: 6.00 Build 0)  -->
<svg version="1.1" id="mappin" xmlns="http://www.w3.org/2000/svg" xmlns:xlink="http://www.w3.org/1999/xlink" x="0px" y="0px"
	 viewBox="0 0 15 18" style="enable-background:new 0 0 15 18;" xml:space="preserve">
<style type="text/css">
	.st0{fill:#36AFBF;}
</style>
<path id="pin" class="st0" d="M7.5,1.5c-2.9,0-5.2,2.3-5.2,5.2c0,0,0,0,0,0c0,3.9,5.2,9.8,5.2,9.8s5.2-5.8,5.2-9.8
	C12.8,3.9,10.4,1.5,7.5,1.5C7.5,1.5,7.5,1.5,7.5,1.5 M7.5,8.6c-1,0-1.9-0.8-1.9-1.9s0.8-1.9,1.9-1.9s1.9,0.8,1.9,1.9
	C9.4,7.8,8.5,8.6,7.5,8.6"/>
</svg>
